<svg xmlns="http://www.w3.org/2000/svg" width="640" height="360" viewBox="0 0 640 360" role="img" aria-label="Helix Biogenics thumbnail">
  <defs>
    <linearGradient id="bg" x1="0" x2="1" y1="0" y2="1"><stop offset="0" stop-color="#050508"/><stop offset="1" stop-color="#26060a"/></linearGradient>
    <pattern id="grid" width="32" height="32" patternUnits="userSpaceOnUse"><path d="M32 0H0v32" fill="none" stroke="#3cffd2" stroke-opacity="0.14"/></pattern>
  </defs>
  <rect width="640" height="360" fill="url(#bg)"/>
  <rect width="640" height="360" fill="url(#grid)"/>
  <line x1="80" y1="85.0" x2="80" y2="175.0" stroke="#3cffd2" opacity="0.42"/><circle cx="80" cy="85.0" r="5" fill="#3cffd2"/><circle cx="80" cy="175.0" r="5" fill="#eaffff" opacity="0.8"/><line x1="98" y1="92.5" x2="98" y2="167.5" stroke="#3cffd2" opacity="0.42"/><circle cx="98" cy="92.5" r="5" fill="#3cffd2"/><circle cx="98" cy="167.5" r="5" fill="#eaffff" opacity="0.8"/><line x1="116" y1="100.0" x2="116" y2="160.0" stroke="#3cffd2" opacity="0.42"/><circle cx="116" cy="100.0" r="5" fill="#3cffd2"/><circle cx="116" cy="160.0" r="5" fill="#eaffff" opacity="0.8"/><line x1="134" y1="107.5" x2="134" y2="152.5" stroke="#3cffd2" opacity="0.42"/><circle cx="134" cy="107.5" r="5" fill="#3cffd2"/><circle cx="134" cy="152.5" r="5" fill="#eaffff" opacity="0.8"/><line x1="152" y1="115.0" x2="152" y2="145.0" stroke="#3cffd2" opacity="0.42"/><circle cx="152" cy="115.0" r="5" fill="#3cffd2"/><circle cx="152" cy="145.0" r="5" fill="#eaffff" opacity="0.8"/><line x1="170" y1="122.5" x2="170" y2="137.5" stroke="#3cffd2" opacity="0.42"/><circle cx="170" cy="122.5" r="5" fill="#3cffd2"/><circle cx="170" cy="137.5" r="5" fill="#eaffff" opacity="0.8"/><line x1="188" y1="130.0" x2="188" y2="130.0" stroke="#3cffd2" opacity="0.42"/><circle cx="188" cy="130.0" r="5" fill="#3cffd2"/><circle cx="188" cy="130.0" r="5" fill="#eaffff" opacity="0.8"/><line x1="206" y1="137.5" x2="206" y2="122.5" stroke="#3cffd2" opacity="0.42"/><circle cx="206" cy="137.5" r="5" fill="#3cffd2"/><circle cx="206" cy="122.5" r="5" fill="#eaffff" opacity="0.8"/><line x1="224" y1="145.0" x2="224" y2="115.0" stroke="#3cffd2" opacity="0.42"/><circle cx="224" cy="145.0" r="5" fill="#3cffd2"/><circle cx="224" cy="115.0" r="5" fill="#eaffff" opacity="0.8"/><line x1="242" y1="152.5" x2="242" y2="107.5" stroke="#3cffd2" opacity="0.42"/><circle cx="242" cy="152.5" r="5" fill="#3cffd2"/><circle cx="242" cy="107.5" r="5" fill="#eaffff" opacity="0.8"/><line x1="260" y1="160.0" x2="260" y2="100.0" stroke="#3cffd2" opacity="0.42"/><circle cx="260" cy="160.0" r="5" fill="#3cffd2"/><circle cx="260" cy="100.0" r="5" fill="#eaffff" opacity="0.8"/><line x1="278" y1="167.5" x2="278" y2="92.5" stroke="#3cffd2" opacity="0.42"/><circle cx="278" cy="167.5" r="5" fill="#3cffd2"/><circle cx="278" cy="92.5" r="5" fill="#eaffff" opacity="0.8"/><line x1="296" y1="85.0" x2="296" y2="175.0" stroke="#3cffd2" opacity="0.42"/><circle cx="296" cy="85.0" r="5" fill="#3cffd2"/><circle cx="296" cy="175.0" r="5" fill="#eaffff" opacity="0.8"/><line x1="314" y1="92.5" x2="314" y2="167.5" stroke="#3cffd2" opacity="0.42"/><circle cx="314" cy="92.5" r="5" fill="#3cffd2"/><circle cx="314" cy="167.5" r="5" fill="#eaffff" opacity="0.8"/><line x1="332" y1="100.0" x2="332" y2="160.0" stroke="#3cffd2" opacity="0.42"/><circle cx="332" cy="100.0" r="5" fill="#3cffd2"/><circle cx="332" cy="160.0" r="5" fill="#eaffff" opacity="0.8"/><line x1="350" y1="107.5" x2="350" y2="152.5" stroke="#3cffd2" opacity="0.42"/><circle cx="350" cy="107.5" r="5" fill="#3cffd2"/><circle cx="350" cy="152.5" r="5" fill="#eaffff" opacity="0.8"/><line x1="368" y1="115.0" x2="368" y2="145.0" stroke="#3cffd2" opacity="0.42"/><circle cx="368" cy="115.0" r="5" fill="#3cffd2"/><circle cx="368" cy="145.0" r="5" fill="#eaffff" opacity="0.8"/><line x1="386" y1="122.5" x2="386" y2="137.5" stroke="#3cffd2" opacity="0.42"/><circle cx="386" cy="122.5" r="5" fill="#3cffd2"/><circle cx="386" cy="137.5" r="5" fill="#eaffff" opacity="0.8"/><line x1="404" y1="130.0" x2="404" y2="130.0" stroke="#3cffd2" opacity="0.42"/><circle cx="404" cy="130.0" r="5" fill="#3cffd2"/><circle cx="404" cy="130.0" r="5" fill="#eaffff" opacity="0.8"/><line x1="422" y1="137.5" x2="422" y2="122.5" stroke="#3cffd2" opacity="0.42"/><circle cx="422" cy="137.5" r="5" fill="#3cffd2"/><circle cx="422" cy="122.5" r="5" fill="#eaffff" opacity="0.8"/><line x1="440" y1="145.0" x2="440" y2="115.0" stroke="#3cffd2" opacity="0.42"/><circle cx="440" cy="145.0" r="5" fill="#3cffd2"/><circle cx="440" cy="115.0" r="5" fill="#eaffff" opacity="0.8"/><line x1="458" y1="152.5" x2="458" y2="107.5" stroke="#3cffd2" opacity="0.42"/><circle cx="458" cy="152.5" r="5" fill="#3cffd2"/><circle cx="458" cy="107.5" r="5" fill="#eaffff" opacity="0.8"/><line x1="476" y1="160.0" x2="476" y2="100.0" stroke="#3cffd2" opacity="0.42"/><circle cx="476" cy="160.0" r="5" fill="#3cffd2"/><circle cx="476" cy="100.0" r="5" fill="#eaffff" opacity="0.8"/><line x1="494" y1="167.5" x2="494" y2="92.5" stroke="#3cffd2" opacity="0.42"/><circle cx="494" cy="167.5" r="5" fill="#3cffd2"/><circle cx="494" cy="92.5" r="5" fill="#eaffff" opacity="0.8"/><line x1="512" y1="85.0" x2="512" y2="175.0" stroke="#3cffd2" opacity="0.42"/><circle cx="512" cy="85.0" r="5" fill="#3cffd2"/><circle cx="512" cy="175.0" r="5" fill="#eaffff" opacity="0.8"/><line x1="530" y1="92.5" x2="530" y2="167.5" stroke="#3cffd2" opacity="0.42"/><circle cx="530" cy="92.5" r="5" fill="#3cffd2"/><circle cx="530" cy="167.5" r="5" fill="#eaffff" opacity="0.8"/><line x1="548" y1="100.0" x2="548" y2="160.0" stroke="#3cffd2" opacity="0.42"/><circle cx="548" cy="100.0" r="5" fill="#3cffd2"/><circle cx="548" cy="160.0" r="5" fill="#eaffff" opacity="0.8"/>
  <rect y="255" width="640" height="105" fill="#000" opacity="0.72"/>
  <rect x="1.5" y="1.5" width="637" height="357" rx="4" fill="none" stroke="#3cffd2" stroke-opacity="0.72" stroke-width="3"/>
  <text x="28" y="304" fill="#fff0f0" font-family="Arial, sans-serif" font-size="40" font-weight="700">Helix Biogenics</text>
  <text x="30" y="336" fill="#e7b6b6" font-family="Arial, sans-serif" font-size="18">Playable now</text>
</svg>